<svg id="Capa_1" data-name="Capa 1" xmlns="http://www.w3.org/2000/svg" viewBox="0 0 50 48.84"><defs><style>.cls-1{fill:#fff;}</style></defs><path class="cls-1" d="M24.67,48.84a2.67,2.67,0,0,1-1.76-.59l-5.1-4.37L12.5,39.32l-6-5.2c-1.5-1.29-3-2.57-4.5-3.85a2.74,2.74,0,0,1-1-1.48,2.17,2.17,0,0,1,.19-1.69,15.23,15.23,0,0,1,1.22-1.56c1.36-1.62,2.74-3.22,4.12-4.82l3.48-4c1.15-1.33,2.29-2.67,3.44-4l3.45-4L20,5c1.15-1.35,2.31-2.69,3.47-4a2.48,2.48,0,0,1,2-.92,2.21,2.21,0,0,1,1.44.51c1.87,1.61,3.74,3.2,5.6,4.81l6.24,5.37,6.67,5.73c1,.83,2,1.65,2.91,2.51a2.4,2.4,0,0,1,.18,3.29c-1.48,1.75-3,3.49-4.47,5.23l-4.56,5.31-4,4.7-4.42,5.13-4.38,5.12a2.68,2.68,0,0,1-1.28,1A6.24,6.24,0,0,1,24.67,48.84ZM26.62,4.27a2.11,2.11,0,0,0-1.8.64c-.66.75-1.29,1.51-1.94,2.26a2.07,2.07,0,0,0,.25,3l2,1.69,9.19,7.9,4.71,4a2.7,2.7,0,0,0,1.67.85,1.86,1.86,0,0,0,1.53-.58c.75-.82,1.47-1.66,2.16-2.51a2,2,0,0,0-.2-2.61l-.87-.75-7.62-6.55-8-6.9A1.77,1.77,0,0,0,26.62,4.27ZM24.06,14.73l.06,0a2.28,2.28,0,0,0-.34-.59c-.77-.69-1.55-1.38-2.36-2a.83.83,0,0,0-1.29.09c-.67.74-1.32,1.5-2,2.27a1,1,0,0,0,.14,1.46l2.09,1.8A1.09,1.09,0,0,0,22,17.61c.59-.71,1.2-1.4,1.8-2.1A1.18,1.18,0,0,0,24.06,14.73Zm-4.65,27a1.05,1.05,0,0,0,.32.68c.74.64,1.48,1.28,2.23,1.91a1,1,0,0,0,1.4-.09c.66-.75,1.32-1.51,1.95-2.28a.94.94,0,0,0-.12-1.36c-.74-.62-1.46-1.25-2.2-1.88a1,1,0,0,0-1.47.11L19.7,41A1.17,1.17,0,0,0,19.41,41.77ZM11.54,29.33a1,1,0,0,0-.4-.77C10.43,28,9.7,27.36,9,26.74a1,1,0,0,0-1.51.11L5.73,28.94a1,1,0,0,0,.13,1.6l2,1.71a1.07,1.07,0,0,0,1.64-.13c.56-.66,1.12-1.31,1.69-2A1.24,1.24,0,0,0,11.54,29.33Zm2.23-9.28a1.14,1.14,0,0,0,.38.72l2.09,1.8a1,1,0,0,0,1.53-.11c.65-.73,1.28-1.48,1.91-2.23A.94.94,0,0,0,19.59,19c-.76-.67-1.54-1.32-2.3-2a1,1,0,0,0-1.42.15c-.6.71-1.2,1.41-1.81,2.11A1.16,1.16,0,0,0,13.77,20.05Zm4.63,3.83a1.39,1.39,0,0,0,.39.88l2.11,1.81a1.05,1.05,0,0,0,1.55-.11c.59-.69,1.19-1.38,1.78-2.08a1,1,0,0,0-.13-1.57L22,21a.93.93,0,0,0-1.39.09c-.64.72-1.27,1.45-1.88,2.19A2.63,2.63,0,0,0,18.4,23.88Zm4.67,4a1.25,1.25,0,0,0,.37.86c.73.63,1.46,1.26,2.2,1.88a1,1,0,0,0,1.15.09,4.64,4.64,0,0,0,.67-.66q.76-.86,1.5-1.74a1,1,0,0,0-.08-1.4c-.75-.65-1.5-1.3-2.26-1.94a1,1,0,0,0-1.37.09c-.65.74-1.29,1.49-1.91,2.25A2.4,2.4,0,0,0,23.07,27.89ZM9.59,24.8a1.06,1.06,0,0,0,.32.77c.74.65,1.49,1.29,2.24,1.92a1,1,0,0,0,1.41-.11c.64-.74,1.28-1.48,1.91-2.23a1,1,0,0,0-.05-1.34c-.78-.68-1.57-1.36-2.36-2a1,1,0,0,0-.44-.19,1,1,0,0,0-.94.4l-1.56,1.81A1.54,1.54,0,0,0,9.59,24.8Zm.47,8.78a1.28,1.28,0,0,0,.32.83c.75.66,1.51,1.33,2.29,2a1,1,0,0,0,1.38-.14c.66-.75,1.3-1.5,1.94-2.26a1,1,0,0,0-.09-1.32c-.75-.66-1.5-1.31-2.26-1.95a1,1,0,0,0-1.43.11c-.64.73-1.27,1.46-1.88,2.2A2.37,2.37,0,0,0,10.06,33.58Zm23.82-2a.87.87,0,0,0-.31-.63c-.77-.66-1.54-1.33-2.32-2a.92.92,0,0,0-1.32.09c-.66.75-1.32,1.51-1.95,2.28a1,1,0,0,0,.1,1.39c.72.66,1.47,1.28,2.22,1.91a1.06,1.06,0,0,0,1.46-.14c.6-.71,1.2-1.41,1.81-2.11A1.22,1.22,0,0,0,33.88,31.58Zm-16.6-6a1.11,1.11,0,0,0-.83.3c-.67.77-1.33,1.53-2,2.32a1,1,0,0,0,.11,1.38c.74.65,1.48,1.29,2.23,1.91a1,1,0,0,0,1.37-.07c.68-.77,1.34-1.54,2-2.33a.92.92,0,0,0-.12-1.31c-.76-.65-1.51-1.31-2.28-2A2.53,2.53,0,0,0,17.28,25.58Zm.51,8.87a1,1,0,0,0-.86.31c-.66.76-1.31,1.51-1.95,2.28a1,1,0,0,0,.12,1.44l2.18,1.87a1,1,0,0,0,1.42-.09c.66-.75,1.31-1.5,1.95-2.26a1,1,0,0,0-.14-1.39c-.74-.61-1.46-1.25-2.19-1.88A1,1,0,0,0,17.79,34.45Zm4.82-15.27a1.16,1.16,0,0,0,.32.7l2.22,1.89a1,1,0,0,0,1.4-.1c.64-.72,1.25-1.46,1.89-2.19A1,1,0,0,0,28.32,18c-.74-.61-1.45-1.25-2.18-1.86a.94.94,0,0,0-1.41.11c-.63.72-1.25,1.45-1.87,2.17A1.07,1.07,0,0,0,22.61,19.18Zm4,14.4a1.19,1.19,0,0,0-.81.34c-.64.74-1.28,1.48-1.91,2.23A1,1,0,0,0,24,37.66l2.1,1.8a1,1,0,0,0,1.5-.1c.62-.72,1.23-1.44,1.86-2.16a1,1,0,0,0-.12-1.46c-.74-.61-1.46-1.26-2.2-1.88A3.18,3.18,0,0,0,26.57,33.58Zm-1.47-1a1.28,1.28,0,0,0-.46-.82c-.73-.61-1.45-1.23-2.17-1.85a1,1,0,0,0-1.42.11c-.24.27-.48.54-.71.82l-1.17,1.35a1.09,1.09,0,0,0,.16,1.52c.67.56,1.34,1.15,2,1.73A1.07,1.07,0,0,0,23,35.3c.62-.7,1.23-1.41,1.82-2.13A3.48,3.48,0,0,0,25.1,32.53Zm2.23-9.45a1.15,1.15,0,0,0,.38.83l2.05,1.75a1,1,0,0,0,1.52-.13l1.74-2A1,1,0,0,0,32.87,22l-.71-.56-1.29-1.16a1,1,0,0,0-1.54.12c-.51.61-1,1.21-1.55,1.81A1.35,1.35,0,0,0,27.33,23.08ZM34.8,24a.9.9,0,0,0-.79.41c-.36.45-.71.89-1.08,1.33-.23.28-.5.54-.73.83A.91.91,0,0,0,32,27a1.09,1.09,0,0,0,.47,1l1.74,1.49a1.42,1.42,0,0,0,.71.39.82.82,0,0,0,1-.47l.07-.08c.23-.24.48-.47.7-.72s.62-.71.92-1.06a1,1,0,0,0,.06-1.37l-.64-.57-1.41-1.2A1,1,0,0,0,34.8,24Z"/></svg>