<svg id="Capa_1" data-name="Capa 1" xmlns="http://www.w3.org/2000/svg" viewBox="0 0 50 48.84"><defs><style>.cls-1{fill:#fff;}</style></defs><path class="cls-1" d="M49.66,20.05C47.73,8.25,37.21-.13,25,0A24.87,24.87,0,0,0,11.75,4,23.39,23.39,0,0,0,3.86,35.41,1.83,1.83,0,0,1,4,37.08c-1.29,3.66-2.55,7.33-3.82,11-.07.22-.29.47-.11.66s.48,0,.72-.07Q6.7,46.86,12.59,45a2.06,2.06,0,0,1,1.63.12,23.51,23.51,0,0,0,11.17,2.49,21.47,21.47,0,0,0,2.27,0A24.31,24.31,0,0,0,44,39.46,22.56,22.56,0,0,0,49.66,20.05ZM28,43.61c-.88.1-1.75.11-3,.14a20,20,0,0,1-10.21-2.9,1.49,1.49,0,0,0-1.33-.15c-2.12.68-4.25,1.33-6.38,2-.19.06-.44.21-.6.07s0-.45.07-.66c.66-1.93,1.31-3.85,2-5.77a1.46,1.46,0,0,0-.17-1.45c-4-6.12-4.67-12.61-1.59-19.24A19.47,19.47,0,0,1,21.39,4.36,20.21,20.21,0,0,1,39.81,9.72a18.93,18.93,0,0,1,6,12.51C46.79,33,38.61,42.34,28,43.61Z"/><path class="cls-1" d="M38.12,30.6a4.48,4.48,0,0,1-1.8,3.75A7.2,7.2,0,0,1,32,35.75a5.44,5.44,0,0,1-1.72-.22,23.71,23.71,0,0,1-13.79-9.62,23.57,23.57,0,0,1-2.84-4.82A7.06,7.06,0,0,1,15.35,13a3.68,3.68,0,0,1,3.66-.6,1.36,1.36,0,0,1,.66.81c.62,1.61,1.23,3.23,1.85,4.84a1.27,1.27,0,0,1-.15,1.15A7.78,7.78,0,0,1,19.86,21a1.11,1.11,0,0,0-.22,1.52A16.88,16.88,0,0,0,28,29.91a1,1,0,0,0,1.28-.25c.64-.69,1.31-1.37,1.91-2.1a1.13,1.13,0,0,1,1.55-.37q2.45,1.23,4.87,2.48A.92.92,0,0,1,38.12,30.6Z"/></svg>